<?xml version="1.0" encoding="UTF-8"?>
<svg id="Layer_1" xmlns="http://www.w3.org/2000/svg" version="1.1" viewBox="0 0 465.3 186.5">
  <!-- Generator: Adobe Illustrator 30.0.0, SVG Export Plug-In . SVG Version: 2.1.1 Build 123)  -->
  <defs>
    <style>
      .st0 {
        fill: #010407;
      }
    </style>
  </defs>
  <g>
    <g>
      <path class="st0" d="M289.5,55.5v61.7h-17.8v-9.8c-1.5,3.2-3.9,5.7-7.1,7.6-3.2,1.8-7.1,2.7-11.6,2.7s-11.2-1.8-14.8-5.3-5.3-8.7-5.3-15.6v-41.3h17.8v37.2c0,3.5.8,6.2,2.5,8.1,1.7,1.8,4,2.8,7.1,2.8,7.6,0,11.4-5.1,11.4-15.4v-32.6h17.8Z"/>
      <path class="st0" d="M297,55.5h18.7l8,26.3c1.2,4.1,2.3,7.9,3.2,11.5s1.5,6.2,1.8,7.7l.3,2.4c.8-5.3,2.7-12.5,5.6-21.7l8.2-26.3h18.2l-23.1,61.7h-18.1l-22.8-61.7h0Z"/>
      <path class="st0" d="M369.3,109.4c-5.3-5.8-7.9-13.2-7.9-22.3s2.7-17.2,8.2-23.3c5.5-6.1,12.9-9.2,22.1-9.2s17,3,22.3,8.9,7.8,13.5,7.8,22.6-2.7,17.1-8,23.1-12.7,9-22.1,9-17.2-2.9-22.4-8.7h0ZM382.8,73.6c-2,3.3-2.9,7.6-2.9,12.9s.4,6.4,1.2,9.1,2.1,4.8,4,6.5c1.8,1.7,4.1,2.5,6.8,2.5,3.9,0,6.8-1.6,8.7-4.9,1.9-3.3,2.8-7.6,2.8-12.9s-.9-9.8-2.8-13.1-4.8-5-9-5-6.9,1.7-8.8,5h0Z"/>
      <path class="st0" d="M431.8,33.7c1.8-1.9,4.1-2.8,6.7-2.8s4.9.9,6.7,2.8c1.9,1.9,2.8,4.1,2.8,6.7s-.9,4.9-2.8,6.7-4.1,2.8-6.7,2.8-4.8-.9-6.7-2.8c-1.8-1.9-2.8-4.1-2.8-6.7s.9-4.9,2.8-6.7ZM429.8,55.5h17.6v61.7h-17.6v-61.7Z"/>
    </g>
    <path class="st0" d="M200.2,107.2v24h-18.8v-23.9l-28-51.9h22l5,11.9c2.6,6.1,4.8,11.4,6.5,15.8s2.8,7.2,3.2,8.5l.7,2c.8-3.7,4.3-12.5,10.7-26.3l5.3-11.9h21.7l-28.2,51.8h0Z"/>
  </g>
  <g>
    <path class="st0" d="M81.6,157.6c-35.5,0-64.4-28.9-64.4-64.4S46.1,28.8,81.6,28.8s64.4,28.9,64.4,64.4-28.9,64.4-64.4,64.4h0ZM81.6,34.2c-32.5,0-58.9,26.4-58.9,58.9s26.4,58.9,58.9,58.9,58.9-26.4,58.9-58.9-26.4-58.9-58.9-58.9Z"/>
    <g>
      <path class="st0" d="M110.8,114c-.5,0-1,0-1.5-.4-1.3-.8-1.7-2.5-.9-3.8,3.1-5,4.7-10.7,4.7-16.6s-.7-7.6-2.1-11.2c-.5-1.4.2-3,1.6-3.6,1.4-.5,3,.2,3.6,1.6,1.6,4.2,2.4,8.7,2.4,13.2,0,6.9-1.9,13.7-5.6,19.6-.5.8-1.4,1.3-2.4,1.3h.2Z"/>
      <path class="st0" d="M52.4,114c-.9,0-1.8-.5-2.4-1.3-3.6-5.9-5.6-12.6-5.6-19.6s.8-9,2.4-13.2c.5-1.4,2.1-2.1,3.6-1.6,1.4.5,2.1,2.1,1.6,3.6-1.4,3.6-2.1,7.4-2.1,11.2,0,5.9,1.6,11.6,4.7,16.6.8,1.3.4,3-.9,3.8-.5.3-1,.4-1.5.4h.2Z"/>
    </g>
    <g>
      <path class="st0" d="M119.9,123.2c-.6,0-1.1-.2-1.6-.5-1.2-.9-1.5-2.6-.7-3.9,5.4-7.5,8.2-16.4,8.2-25.6s-1.7-14.1-5-20.5c-.7-1.4-.2-3,1.2-3.7,1.4-.7,3-.2,3.7,1.2,3.7,7.1,5.7,15.1,5.7,23.1s-3.2,20.4-9.2,28.8c-.5.8-1.4,1.2-2.3,1.2h0Z"/>
      <path class="st0" d="M43.3,123.2c-.9,0-1.7-.4-2.3-1.2-6-8.5-9.2-18.4-9.2-28.8s2-16,5.7-23.1c.7-1.4,2.4-1.9,3.7-1.2,1.4.7,1.9,2.4,1.2,3.7-3.3,6.4-5,13.3-5,20.5s2.8,18.1,8.2,25.6c.9,1.2.6,3-.7,3.9-.5.3-1,.5-1.6.5h0Z"/>
    </g>
    <path class="st0" d="M90.4,103.5v27.7h-17.2v-27.6l-25.7-47.5h20.2l4.5,10.9c2.4,5.6,4.4,10.5,5.9,14.5s2.5,6.6,3,7.8l.6,1.8c.7-3.4,4-11.4,9.8-24.1l4.9-10.9h19.9l-25.9,47.4h0Z"/>
  </g>
  <g>
    <path class="st0" d="M217,141v7.9h-2.5v-7.8l-7.2-13.3h2.9l1.6,3.1c.7,1.3,1.3,2.5,1.8,3.5.5,1,.9,1.8,1.1,2.3.2.5.5,1,.6,1.3s.2.5.3.6h0c.2-.4,1.5-3,4-7.8l1.6-3.1h2.9l-7.2,13.2Z"/>
    <path class="st0" d="M225.8,146.9c-1.3-1.5-2-3.5-2-5.8s.7-4.3,2.1-5.9c1.4-1.6,3.2-2.4,5.4-2.4s3,.4,4.1,1.1c1.1.8,2,1.7,2.5,2.9.5,1.2.8,2.6.8,4.1,0,2.4-.7,4.3-2,5.9-1.3,1.5-3.2,2.3-5.5,2.3s-4.1-.8-5.4-2.3ZM228.6,135.8c-.8.6-1.3,1.3-1.7,2.2-.4.9-.5,1.9-.5,3,0,1.6.4,3.1,1.3,4.2.9,1.2,2.1,1.8,3.5,1.8s2.8-.6,3.6-1.7c.8-1.1,1.3-2.6,1.3-4.3s0-1.6-.3-2.3c-.2-.7-.5-1.4-.8-1.9-.4-.6-.9-1-1.5-1.4-.7-.3-1.4-.5-2.3-.5s-1.9.3-2.6.9Z"/>
    <path class="st0" d="M254.5,133v15.9h-2.5v-2.8c-.9,2-2.5,2.9-5,2.9s-2.8-.5-3.7-1.4c-.9-.9-1.4-2.2-1.4-3.7v-10.9h2.5v10.3c0,1.1.3,2,.9,2.6s1.4.9,2.4.9,2.4-.5,3.1-1.4c.8-.9,1.2-2.1,1.2-3.7v-8.8h2.5Z"/>
    <path class="st0" d="M261.2,135.8c.9-2,2.3-2.9,4.3-2.9s.7,0,.9,0v2.5c-.5-.2-1-.3-1.4-.3-1.1,0-2,.5-2.7,1.5-.7,1-1.1,2.2-1.1,3.5v8.7h-2.5v-15.9h2.5v2.8Z"/>
    <path class="st0" d="M275,133h2.6l1.5,5.3c.5,1.8,1,3.4,1.4,4.8.4,1.4.6,2.3.7,2.7v.7c.5-1.3,1.2-4.1,2.4-8.2l1.5-5.3h2.6l1.6,5.3c.4,1.2.7,2.3,1,3.3s.5,1.8.7,2.4c.2.6.3,1.1.4,1.5.1.4.2.7.2.8v.2c.4-1.2,1.2-4,2.5-8.3l1.6-5.3h2.6l-5,15.9h-3.1l-1.5-5.2-2.2-7.9c-.3,1.3-1,4-2.1,7.9l-1.4,5.2h-3.1l-4.9-15.9Z"/>
    <path class="st0" d="M301.5,146.9c-1.3-1.5-2-3.5-2-5.8s.7-4.3,2.1-5.9c1.4-1.6,3.2-2.4,5.4-2.4s3,.4,4.1,1.1c1.1.8,2,1.7,2.5,2.9.5,1.2.8,2.6.8,4.1,0,2.4-.7,4.3-2,5.9-1.3,1.5-3.2,2.3-5.5,2.3s-4.1-.8-5.4-2.3ZM304.3,135.8c-.8.6-1.3,1.3-1.7,2.2s-.5,1.9-.5,3c0,1.6.4,3.1,1.3,4.2.9,1.2,2.1,1.8,3.5,1.8s2.8-.6,3.6-1.7c.8-1.1,1.3-2.6,1.3-4.3s0-1.6-.3-2.3c-.2-.7-.5-1.4-.8-1.9-.4-.6-.9-1-1.5-1.4s-1.4-.5-2.3-.5-1.9.3-2.6.9Z"/>
    <path class="st0" d="M320.2,135.8c.9-2,2.3-2.9,4.3-2.9s.7,0,.9,0v2.5c-.5-.2-1-.3-1.4-.3-1.1,0-2,.5-2.7,1.5-.7,1-1.1,2.2-1.1,3.5v8.7h-2.5v-15.9h2.5v2.8Z"/>
    <path class="st0" d="M327.9,126.7h2.5v22.2h-2.5v-22.2Z"/>
    <path class="st0" d="M348,126.7v22.2h-2.5v-2.3c-1.1,1.7-2.8,2.6-4.9,2.6s-2.6-.4-3.7-1.1-1.8-1.7-2.3-2.9c-.5-1.2-.8-2.5-.8-4,0-2.5.6-4.5,1.9-6s2.9-2.3,4.9-2.3,3.7.9,4.8,2.7v-8.7h2.5ZM342.5,146.6c.5-.2,1-.5,1.5-1,.5-.4.8-1.1,1.1-1.9.3-.8.4-1.8.4-2.9s-.1-2-.4-2.8c-.3-.8-.7-1.4-1.2-1.8-.5-.4-1-.7-1.4-.9-.5-.2-1-.3-1.5-.3s-1.2.1-1.8.4c-.5.3-1,.6-1.5,1.1-.4.5-.8,1.1-1,1.9-.2.8-.4,1.7-.4,2.7s.2,2.1.6,3,.9,1.6,1.6,2c.7.5,1.4.7,2.2.7s1.2,0,1.7-.3Z"/>
    <path class="st0" d="M351.5,146.6c0-.2.2-.4.4-.6s.4-.3.6-.4c.2,0,.5-.1.7-.1.5,0,.9.2,1.3.5s.5.8.5,1.3-.2,1-.5,1.3-.8.5-1.3.5-1-.2-1.3-.5-.5-.8-.5-1.3,0-.5.1-.7Z"/>
    <path class="st0" d="M377.6,146.6l-.3,2.3h-11.6l2.4-21.1h2.6l-2.1,18.8h9Z"/>
    <path class="st0" d="M381.8,133h2.5l-1.8,15.9h-2.5l1.8-15.9ZM382.6,126.9c.3-.3.7-.5,1.2-.5s.8.2,1.1.5c.3.3.4.7.3,1.2,0,.5-.2.8-.6,1.1s-.7.4-1.2.4-.8-.1-1.1-.4c-.3-.3-.4-.7-.3-1.1,0-.5.2-.9.6-1.2Z"/>
    <path class="st0" d="M396.9,135.9c-.9-.6-2.2-.9-3.8-.9s-1.5.2-2.1.6-.8.9-.9,1.5c0,.4,0,.7,0,1s.3.5.6.8.6.4.8.5c.2.1.6.3,1.1.5.2,0,.3.1.4.2.5.2.9.4,1.3.6.3.2.7.4,1.1.7s.7.6.9.9.4.7.5,1.1c.1.4.1.9,0,1.4-.2,1.4-.8,2.4-1.8,3.2-1,.8-2.4,1.2-4.1,1.2s-3.4-.3-4.6-1l.3-2.4c1.3.8,2.7,1.2,4.4,1.2s1.7-.2,2.3-.6.8-.9.9-1.5c0-.7-.1-1.3-.6-1.8-.5-.4-1.4-.9-2.6-1.4-.4-.2-.8-.4-1.1-.5-.3-.2-.6-.4-1-.7-.3-.3-.6-.5-.8-.8-.2-.3-.4-.7-.5-1.1-.1-.4-.1-.9,0-1.4.1-.9.4-1.7,1-2.3s1.2-1.2,2-1.5,1.7-.5,2.7-.5c1.6,0,2.9.2,3.9.7l-.3,2.3Z"/>
    <path class="st0" d="M403.2,144.3c-.2,1.7.5,2.5,2.1,2.5s1.6-.2,2.2-.7l-.3,2.4c-.7.4-1.5.5-2.4.5-3.1,0-4.5-1.6-4.2-4.8l1.1-9.2h-2.5l.2-2h2.5l.4-3.9h2.5l-.4,3.9h4.4l-.2,2h-4.4l-1.1,9.3Z"/>
    <path class="st0" d="M421.5,148.1c-.4.2-.9.4-1.5.5-.6.1-1.1.3-1.7.3s-1.1.1-1.5.1c-2.4,0-4.3-.7-5.6-2.2-1.3-1.5-1.8-3.4-1.5-5.8.3-2.5,1.2-4.5,2.7-6,1.5-1.5,3.3-2.2,5.3-2.2s3.5.6,4.5,1.9c1,1.3,1.4,3.1,1.2,5.4,0,.7-.2,1.3-.4,1.9h-10.8c0,1.6.5,2.8,1.4,3.6.9.8,2.2,1.2,3.8,1.2s3.3-.4,4.4-1.1l-.3,2.3ZM421,139.3c.2-1.3,0-2.4-.7-3.2-.6-.8-1.6-1.2-2.8-1.2s-2.2.4-3.2,1.3-1.6,2.1-1.9,3.7h8.5v-.6Z"/>
    <path class="st0" d="M429.9,135.8c1.2-2,2.9-3,5.3-3s2.7.5,3.5,1.4,1.1,2.2,1,3.8l-1.2,10.9h-2.5l1.2-10.3c.1-1.2,0-2.1-.6-2.7s-1.3-.9-2.2-.9-2.3.5-3.2,1.4c-1,.9-1.5,2.2-1.7,3.8l-1,8.7h-2.5l1.8-15.9h2.5l-.3,2.8Z"/>
    <path class="st0" d="M443.2,146c.4-.4.8-.5,1.4-.5s.9.2,1.3.5.5.8.4,1.3c0,.5-.3,1-.7,1.3s-.9.5-1.4.5-1-.2-1.3-.5-.4-.8-.4-1.3c0-.5.3-1,.7-1.3ZM445.4,127.8h2.4l-1.7,14.7h-2.4l1.7-14.7Z"/>
  </g>
</svg>