<svg viewBox="0 0 465.3 186.5" xmlns="http://www.w3.org/2000/svg"><g fill="#fff"><path d="m289.6 55.6v61.7h-17.8v-9.8c-1.5 3.2-3.9 5.7-7.1 7.6-3.2 1.8-7.1 2.7-11.6 2.7s-11.2-1.8-14.8-5.3-5.3-8.7-5.3-15.6v-41.3h17.8v37.2c0 3.5.8 6.2 2.5 8.1 1.7 1.8 4 2.8 7.1 2.8 7.6 0 11.4-5.1 11.4-15.4v-32.6h17.8z"/><path d="m297.1 55.6h18.7l8 26.3c1.2 4.1 2.3 7.9 3.2 11.5s1.5 6.2 1.8 7.7l.3 2.4c.8-5.3 2.7-12.5 5.6-21.7l8.2-26.3h18.2l-23.1 61.7h-18.1l-22.8-61.7z"/><path d="m369.3 109.5c-5.3-5.8-7.9-13.2-7.9-22.3s2.7-17.2 8.2-23.3 12.9-9.2 22.1-9.2 17 3 22.3 8.9 7.8 13.5 7.8 22.6-2.7 17.1-8 23.1-12.7 9-22.1 9-17.2-2.9-22.4-8.7zm13.5-35.8c-2 3.3-2.9 7.6-2.9 12.9s.4 6.4 1.2 9.1 2.1 4.8 4 6.5c1.8 1.7 4.1 2.5 6.8 2.5 3.9 0 6.8-1.6 8.7-4.9s2.8-7.6 2.8-12.9-.9-9.8-2.8-13.1c-1.8-3.3-4.8-5-9-5s-6.9 1.7-8.8 5z"/><path d="m431.9 33.8c1.8-1.9 4.1-2.8 6.7-2.8s4.9.9 6.7 2.8c1.9 1.9 2.8 4.1 2.8 6.7s-.9 4.9-2.8 6.7c-1.9 1.9-4.1 2.8-6.7 2.8s-4.8-.9-6.7-2.8c-1.8-1.9-2.8-4.1-2.8-6.7s.9-4.9 2.8-6.7zm-2.1 21.8h17.6v61.7h-17.6z"/><path d="m200.2 107.3v24h-18.8v-23.9l-28-51.9h22l5 11.9c2.6 6.1 4.8 11.4 6.5 15.8s2.8 7.2 3.2 8.5l.7 2c.8-3.7 4.3-12.5 10.7-26.3l5.3-11.9h21.7l-28.2 51.8z"/><path d="m81.6 157.6c-35.5 0-64.4-28.9-64.4-64.4s28.9-64.3 64.4-64.3 64.4 28.9 64.4 64.4-28.9 64.4-64.4 64.4zm0-123.3c-32.5 0-58.9 26.4-58.9 58.9s26.4 58.9 58.9 58.9 58.9-26.4 58.9-58.9-26.4-58.9-58.9-58.9z"/><path d="m110.8 114.1c-.5 0-1-.1-1.5-.4-1.3-.8-1.7-2.5-.9-3.8 3.1-5 4.7-10.7 4.7-16.6s-.7-7.6-2.1-11.2c-.5-1.4.2-3 1.6-3.6 1.4-.5 3 .2 3.6 1.6 1.6 4.2 2.4 8.7 2.4 13.2 0 6.9-1.9 13.7-5.6 19.6-.5.8-1.4 1.3-2.4 1.3z"/><path d="m52.5 114.1c-.9 0-1.8-.5-2.4-1.3-3.6-5.9-5.6-12.6-5.6-19.6s.8-9 2.4-13.2c.5-1.4 2.1-2.1 3.6-1.6 1.4.5 2.1 2.1 1.6 3.6-1.4 3.6-2.1 7.4-2.1 11.2 0 5.9 1.6 11.6 4.7 16.6.8 1.3.4 3-.9 3.8-.5.3-1 .4-1.5.4z"/><path d="m120 123.3c-.6 0-1.1-.2-1.6-.5-1.2-.9-1.5-2.6-.7-3.9 5.4-7.5 8.2-16.4 8.2-25.6s-1.7-14.1-5-20.5c-.7-1.4-.2-3 1.2-3.7s3-.2 3.7 1.2c3.7 7.1 5.7 15.1 5.7 23.1s-3.2 20.4-9.2 28.8c-.5.8-1.4 1.2-2.3 1.2z"/><path d="m43.3 123.3c-.9 0-1.7-.4-2.3-1.2-6-8.5-9.2-18.4-9.2-28.8s2-16 5.7-23.1c.7-1.4 2.4-1.9 3.7-1.2 1.4.7 1.9 2.4 1.2 3.7-3.3 6.4-5 13.3-5 20.5s2.8 18.1 8.2 25.6c.9 1.2.6 3-.7 3.9-.5.3-1 .5-1.6.5z"/><path d="m90.5 103.6v27.7h-17.2v-27.6l-25.7-47.5h20.2l4.5 10.9c2.4 5.6 4.4 10.5 5.9 14.5s2.5 6.6 3 7.8l.6 1.8c.7-3.4 4-11.4 9.8-24.1l4.9-10.9h19.9z"/></g></svg>